<svg width="14" height="15" viewBox="0 0 14 15" fill="none" xmlns="http://www.w3.org/2000/svg">
<g clip-path="url(#clip0_0_213)">
<path fill-rule="evenodd" clip-rule="evenodd" d="M3.96252 2.00874C4.21939 1.75187 4.59362 1.54622 5.01667 1.54622H9.04167C9.19638 1.54622 9.34475 1.60768 9.45415 1.71707L12.0791 4.34207C12.1885 4.45147 12.25 4.59984 12.25 4.75455V10.5296C12.25 10.9526 12.0443 11.3268 11.7875 11.5837C11.5306 11.8406 11.1564 12.0462 10.7333 12.0462H5.01667C4.59362 12.0462 4.21939 11.8406 3.96252 11.5837C3.70565 11.3268 3.5 10.9526 3.5 10.5296V3.06289C3.5 2.63983 3.70565 2.26561 3.96252 2.00874ZM5.01667 2.71289C4.97305 2.71289 4.88061 2.74057 4.78748 2.8337C4.69435 2.92683 4.66667 3.01927 4.66667 3.06289V10.5296C4.66667 10.5732 4.69435 10.6656 4.78748 10.7587C4.88061 10.8519 4.97305 10.8796 5.01667 10.8796H10.7333C10.7769 10.8796 10.8694 10.8519 10.9625 10.7587C11.0557 10.6656 11.0833 10.5732 11.0833 10.5296V4.99618L8.80004 2.71289H5.01667Z" fill="#05A8FF"/>
<path fill-rule="evenodd" clip-rule="evenodd" d="M1.75002 4.8129C2.07219 4.8129 2.33335 5.07406 2.33335 5.39623V12.8629C2.33335 12.9065 2.36103 12.999 2.45417 13.0921C2.5473 13.1852 2.63974 13.2129 2.68335 13.2129H8.40002C8.72219 13.2129 8.98335 13.4741 8.98335 13.7962C8.98335 14.1184 8.72219 14.3796 8.40002 14.3796H2.68335C2.2603 14.3796 1.88608 14.1739 1.62921 13.917C1.37234 13.6602 1.16669 13.2859 1.16669 12.8629V5.39623C1.16669 5.07406 1.42785 4.8129 1.75002 4.8129Z" fill="#05A8FF"/>
<path fill-rule="evenodd" clip-rule="evenodd" d="M8.75002 1.54622C9.07219 1.54622 9.33335 1.80739 9.33335 2.12955V4.46289H11.6667C11.9889 4.46289 12.25 4.72405 12.25 5.04622C12.25 5.36839 11.9889 5.62955 11.6667 5.62955H8.75002C8.42785 5.62955 8.16669 5.36839 8.16669 5.04622V2.12955C8.16669 1.80739 8.42785 1.54622 8.75002 1.54622Z" fill="#05A8FF"/>
</g>
<defs>
<clipPath id="clip0_0_213">
<rect width="14" height="14" fill="white" transform="translate(0 0.962891)"/>
</clipPath>
</defs>
</svg>
