<svg width="14" height="15" viewBox="0 0 14 15" fill="none" xmlns="http://www.w3.org/2000/svg">
<g clip-path="url(#clip0_0_219)">
<path fill-rule="evenodd" clip-rule="evenodd" d="M2.26256 2.05878C2.59075 1.73059 3.03587 1.54622 3.5 1.54622H8.45833C8.61304 1.54622 8.76142 1.60768 8.87081 1.71707L12.0791 4.92541C12.1885 5.0348 12.25 5.18318 12.25 5.33789V12.6296C12.25 13.0937 12.0656 13.5388 11.7374 13.867C11.4092 14.1952 10.9641 14.3796 10.5 14.3796H2.33333C2.01117 14.3796 1.75 14.1184 1.75 13.7962C1.75 13.4741 2.01117 13.2129 2.33333 13.2129H10.5C10.6547 13.2129 10.8031 13.1514 10.9125 13.042C11.0219 12.9326 11.0833 12.7843 11.0833 12.6296V5.57951L8.21671 2.71289H3.5C3.34529 2.71289 3.19692 2.77434 3.08752 2.88374C2.97812 2.99314 2.91667 3.14151 2.91667 3.29622V5.62955C2.91667 5.95172 2.6555 6.21289 2.33333 6.21289C2.01117 6.21289 1.75 5.95172 1.75 5.62955V3.29622C1.75 2.83209 1.93437 2.38697 2.26256 2.05878Z" fill="#05A8FF"/>
<path fill-rule="evenodd" clip-rule="evenodd" d="M8.16665 1.54622C8.48881 1.54622 8.74998 1.80739 8.74998 2.12955V5.04622H11.6666C11.9888 5.04622 12.25 5.30739 12.25 5.62955C12.25 5.95172 11.9888 6.21289 11.6666 6.21289H8.16665C7.84448 6.21289 7.58331 5.95172 7.58331 5.62955V2.12955C7.58331 1.80739 7.84448 1.54622 8.16665 1.54622Z" fill="#05A8FF"/>
<path fill-rule="evenodd" clip-rule="evenodd" d="M1.33754 7.84207C1.56535 7.61427 1.93469 7.61427 2.1625 7.84207L5.07917 10.7587C5.30697 10.9865 5.30697 11.3559 5.07917 11.5837C4.85136 11.8115 4.48201 11.8115 4.25421 11.5837L1.33754 8.66703C1.10974 8.43923 1.10974 8.06988 1.33754 7.84207Z" fill="#05A8FF"/>
<path fill-rule="evenodd" clip-rule="evenodd" d="M5.07917 7.84207C5.30697 8.06988 5.30697 8.43923 5.07917 8.66703L2.1625 11.5837C1.93469 11.8115 1.56535 11.8115 1.33754 11.5837C1.10974 11.3559 1.10974 10.9865 1.33754 10.7587L4.25421 7.84207C4.48201 7.61427 4.85136 7.61427 5.07917 7.84207Z" fill="#05A8FF"/>
</g>
<defs>
<clipPath id="clip0_0_219">
<rect width="14" height="14" fill="white" transform="translate(0 0.962891)"/>
</clipPath>
</defs>
</svg>
