<svg width="14" height="15" viewBox="0 0 14 15" fill="none" xmlns="http://www.w3.org/2000/svg">
<g clip-path="url(#clip0_0_207)">
<path fill-rule="evenodd" clip-rule="evenodd" d="M0.583333 2.71289C0.905499 2.71289 1.16667 2.97406 1.16667 3.29622V6.21289H4.08333C4.4055 6.21289 4.66667 6.47406 4.66667 6.79622C4.66667 7.11839 4.4055 7.37956 4.08333 7.37956H0.583333C0.261167 7.37956 0 7.11839 0 6.79622V3.29622C0 2.97406 0.261167 2.71289 0.583333 2.71289Z" fill="#05A8FF"/>
<path fill-rule="evenodd" clip-rule="evenodd" d="M9.33331 9.12955C9.33331 8.80739 9.59448 8.54622 9.91665 8.54622H13.4166C13.7388 8.54622 14 8.80739 14 9.12955V12.6296C14 12.9517 13.7388 13.2129 13.4166 13.2129C13.0945 13.2129 12.8333 12.9517 12.8333 12.6296V9.71289H9.91665C9.59448 9.71289 9.33331 9.45172 9.33331 9.12955Z" fill="#05A8FF"/>
<path fill-rule="evenodd" clip-rule="evenodd" d="M5.38239 2.36064C6.32897 2.08685 7.32948 2.0573 8.29057 2.27475C9.25166 2.49221 10.142 2.94959 10.8785 3.60421C11.615 4.25883 12.1737 5.08936 12.5024 6.01829C12.6099 6.322 12.4508 6.65533 12.1471 6.76281C11.8434 6.87028 11.5101 6.7112 11.4026 6.40749C11.1396 5.66434 10.6927 4.99992 10.1035 4.47622C9.51424 3.95253 8.80197 3.58662 8.0331 3.41266C7.26423 3.23869 6.46382 3.26233 5.70656 3.48137C4.9493 3.70041 4.25986 4.10771 3.70258 4.66526C3.69827 4.66958 3.6939 4.67382 3.68946 4.67799L0.982788 7.22133C0.748009 7.44194 0.378841 7.43045 0.158229 7.19568C-0.0623826 6.9609 -0.0508975 6.59173 0.183882 6.37112L2.88406 3.83388C3.57949 3.14034 4.43882 2.63357 5.38239 2.36064ZM13.8418 8.7301C14.0624 8.96488 14.0509 9.33405 13.8161 9.55466L11.1159 12.0919C10.4205 12.7854 9.56118 13.2922 8.61762 13.5651C7.67104 13.8389 6.67052 13.8685 5.70944 13.651C4.74835 13.4336 3.85801 12.9762 3.1215 12.3216C2.38499 11.6669 1.8263 10.8364 1.49758 9.90749C1.39011 9.60378 1.54919 9.27044 1.8529 9.16297C2.15662 9.0555 2.48995 9.21458 2.59742 9.51829C2.8604 10.2614 3.30734 10.9259 3.89655 11.4496C4.48576 11.9733 5.19803 12.3392 5.9669 12.5131C6.73577 12.6871 7.53618 12.6634 8.29344 12.4444C9.05071 12.2254 9.74014 11.8181 10.2974 11.2605C10.3 11.2579 10.3026 11.2554 10.3053 11.2528C10.307 11.2511 10.3088 11.2494 10.3106 11.2478L13.0172 8.70445C13.252 8.48384 13.6212 8.49532 13.8418 8.7301Z" fill="#05A8FF"/>
</g>
<defs>
<clipPath id="clip0_0_207">
<rect width="14" height="14" fill="white" transform="translate(0 0.962891)"/>
</clipPath>
</defs>
</svg>
