<svg width="17" height="18" viewBox="0 0 17 18" fill="none" xmlns="http://www.w3.org/2000/svg">
<mask id="mask0_0_1341" style="mask-type:luminance" maskUnits="userSpaceOnUse" x="4" y="3" width="10" height="12">
<path d="M13.2773 12.975C13.5403 13.275 13.5403 13.725 13.2773 14.025C13.1458 14.175 13.0144 14.25 12.8171 14.25C12.6199 14.25 12.4884 14.175 12.3569 14.025L8.87253 10.05L5.38814 14.025C5.25666 14.175 5.12517 14.25 4.92794 14.25C4.73071 14.25 4.59922 14.175 4.46774 14.025C4.20476 13.725 4.20476 13.275 4.46774 12.975L7.95213 9L4.46774 5.025C4.20476 4.725 4.20476 4.275 4.46774 3.975C4.73071 3.675 5.12517 3.675 5.38814 3.975L8.87253 7.95L12.3569 3.975C12.6199 3.675 13.0144 3.675 13.2773 3.975C13.5403 4.275 13.5403 4.725 13.2773 5.025L9.79294 9L13.2773 12.975Z" fill="white"/>
</mask>
<g mask="url(#mask0_0_1341)">
<rect x="0.983398" width="15.7784" height="18" fill="#012748"/>
</g>
</svg>
